<svg width="365" height="364" viewBox="0 0 365 364" fill="none" xmlns="http://www.w3.org/2000/svg">
<ellipse cx="182.5" cy="182" rx="182.5" ry="182" fill="#C4C4C4"/>
<path d="M106.831 180.56L108.431 183.68C113.991 181.96 119.471 179.56 123.671 177.16V191.96C123.671 193.48 123.551 195.48 123.431 196.24H127.351C127.191 195.44 127.111 193.48 127.111 191.96V175.08C131.191 172.36 134.871 169.32 137.911 166.16L135.231 163.68C132.471 167 128.471 170.48 124.311 173.08C119.871 175.88 113.751 178.68 106.831 180.56ZM152.631 165.2V168.52C153.711 168.44 154.991 168.4 156.231 168.4H171.911C173.271 168.4 174.631 168.44 175.591 168.52V165.2C174.631 165.36 173.231 165.4 171.951 165.4H156.231C154.951 165.4 153.671 165.36 152.631 165.2ZM178.511 175.76L176.231 174.32C175.791 174.56 174.951 174.64 174.031 174.64H152.951C151.871 174.64 150.511 174.56 149.031 174.4V177.76C150.471 177.68 151.991 177.64 152.951 177.64H174.191C173.471 180.52 171.871 183.92 169.431 186.48C166.031 190.08 161.031 192.64 155.351 193.8L157.831 196.64C162.951 195.24 167.951 192.88 172.151 188.28C175.111 185.04 176.911 180.88 177.991 176.92C178.071 176.64 178.311 176.12 178.511 175.76ZM214.609 168.24L212.569 166.68C211.929 166.88 210.889 167 209.569 167H194.129C192.929 167 190.649 166.84 190.089 166.76V170.4C190.529 170.36 192.729 170.2 194.129 170.2H209.729C208.729 173.52 205.809 178.24 203.089 181.32C198.969 185.92 193.049 190.68 186.609 193.2L189.169 195.88C195.089 193.2 200.489 188.8 204.769 184.2C208.849 187.84 213.089 192.56 215.769 196.08L218.569 193.68C215.969 190.52 211.089 185.32 206.889 181.72C209.729 178.12 212.249 173.44 213.609 170C213.849 169.44 214.369 168.56 214.609 168.24ZM236.089 191.48C236.089 192.96 236.009 194.92 235.809 196.2H239.689C239.529 194.88 239.449 192.72 239.449 191.48C239.449 190.32 239.449 184.28 239.409 178.28C243.849 179.68 250.769 182.36 255.129 184.72L256.489 181.32C252.289 179.2 244.689 176.32 239.409 174.72C239.409 172.2 239.409 169.88 239.409 168.2C239.409 167 239.569 165.28 239.689 164.04H235.769C236.009 165.28 236.089 167.08 236.089 168.2V191.48Z" fill="black"/>
</svg>
