<svg width="133" height="127" viewBox="0 0 133 127" fill="none" xmlns="http://www.w3.org/2000/svg">
<g opacity="0.1">
<path d="M108.121 53.6869C104.584 52.6643 102.069 51.327 99.9856 50.1471C99.6712 49.9898 98.2956 49.8325 97.7061 50.1864C84.972 55.4568 73.8494 56.0468 65.7137 56.0861C65.3207 56.0861 64.967 56.0861 64.574 56.0861C57.1851 56.0468 45.9838 53.8049 38.084 51.209C37.1014 50.8944 36.1975 50.5797 35.3721 50.2258C34.6254 49.8718 33.2891 49.8325 32.3458 50.3044C21.3411 54.9848 8.92147 55.9288 1.92561 56.0861C1.10025 56.0861 0.117686 55.3781 0.0783835 54.6308C0.0783835 53.8442 -0.000221703 48.1019 0.0390809 47.4333C0.0783835 46.2533 1.06095 45.6634 1.49328 45.6634C1.92561 45.6634 12.2622 45.1914 19.9262 43.4215C20.7123 43.3035 21.1839 42.0842 20.3585 41.4943C17.3322 39.2917 14.699 36.8925 12.3408 33.3134C10.415 30.4029 9.03938 26.0765 9.00007 21.9861C9.00007 21.9467 9.00007 21.9074 9.00007 21.8681C9.00007 14.9458 12.5766 9.20347 17.2536 5.62434C21.9306 1.96655 27.7867 0.0393311 33.7607 0C33.8786 0 33.9965 0 34.0358 0C39.9312 0.0786621 45.6301 2.39919 50.2678 6.05698C54.8269 9.71477 58.5607 15.0638 58.6786 21.7501C58.6786 21.7501 58.6786 21.7501 58.6786 21.7894C58.6786 21.8287 58.6786 21.8287 58.6786 21.8681C58.6786 25.4865 58.0104 29.459 56.6741 32.2908C55.3378 35.162 53.3727 37.4432 51.2111 39.3311C50.1499 40.2357 49.5211 40.747 48.3813 41.5336C47.8703 41.8876 47.1629 42.9495 48.9315 43.4608C54.6304 44.7981 60.9581 45.7027 64.574 45.7027C64.9277 45.7027 65.2814 45.7027 65.6744 45.7027C71.4519 45.6634 77.0722 44.9947 85.5615 43.5395C86.3869 43.3035 86.9371 42.5169 85.6795 41.4549C82.7711 38.8984 80.1378 36.4206 77.7796 32.6448C76.0503 29.8523 74.8319 25.8012 74.7926 22.0647C74.7926 21.9467 74.7926 21.8681 74.7926 21.9467C74.7533 15.1425 78.0547 9.32146 82.6532 5.74233C87.2516 2.12388 93.1076 0.314648 99.1209 0.275317C99.1995 0.275317 99.2782 0.275317 99.3175 0.275317C99.3568 0.275317 99.3961 0.275317 99.3961 0.275317C105.96 0.314648 111.973 2.71384 116.493 6.52896C121.012 10.3047 124.275 15.6538 124.393 21.8681C124.393 21.8681 124.393 21.8681 124.393 21.9074C124.393 21.9467 124.393 21.9467 124.393 21.9861C124.471 27.7284 122.034 33.746 117.986 37.8365C116.218 39.6457 113.742 41.1796 113.27 41.4549C112.562 41.8482 112.327 43.3035 113.113 43.5395C114.252 43.8935 121.327 45.624 131.585 45.6634C132.685 45.6634 132.96 46.804 132.96 47.4726C132.96 47.8659 133 54.4342 133 54.7095C133 55.3388 132.332 56.1648 131.664 56.1648C119.873 56.0861 113.27 55.1815 108.121 53.6869ZM86.0725 27.0204C87.055 28.633 88.5485 30.3242 90.3172 31.8975C92.7932 34.1 95.1121 35.5946 97.7061 37.0892C98.7279 37.8365 100.104 37.8365 101.165 37.2858C106.117 34.7687 108.868 32.6448 111.03 30.4029C113.624 27.6104 114.41 24.9359 114.488 21.9861C114.488 21.9861 114.488 21.9467 114.488 21.9074C114.528 19.7835 113.152 16.9517 110.322 14.5918C107.532 12.232 103.523 10.6194 99.2782 10.6194H99.1995C99.1602 10.6194 99.1602 10.6194 99.1602 10.6194C95.0335 10.6194 91.1425 11.9566 88.5879 14.0019C86.0332 16.0864 84.6969 18.4856 84.6576 22.0254C84.6576 23.3626 85.1292 25.4472 86.0725 27.0204ZM20.4764 27.4531C21.5376 29.105 23.1883 30.7569 25.0748 32.2908C27.3544 34.1 29.8698 35.6339 32.1886 36.9319C32.9354 37.4038 35.0184 37.4432 35.8044 37.0499C38.477 35.6339 40.5601 34.454 42.4466 33.1954C45.2371 31.3469 46.8485 29.6556 47.7524 27.7284C48.342 26.4305 48.735 24.2279 48.7743 21.9467C48.7743 21.9467 48.7743 21.9074 48.7743 21.8681C48.8136 19.7049 47.2808 16.7157 44.2545 14.3165C41.3068 11.9173 37.2193 10.3441 33.9179 10.3834H33.8393H33.8C29.9484 10.3834 25.9002 11.7993 23.149 13.9625C20.3585 16.1651 18.9436 18.7216 18.9043 21.9467C18.9436 23.6773 19.4546 25.8012 20.4764 27.4531ZM9.00007 21.8681C9.00007 21.8287 9.00007 21.8287 9.00007 21.8681V21.8681Z" fill="black"/>
<path d="M108.121 124.522C104.584 123.46 102.069 122.162 99.9858 120.982C99.6714 120.825 98.2958 120.668 97.7063 121.022C84.9723 126.292 73.8496 126.882 65.714 126.921C65.3209 126.921 64.9672 126.921 64.5742 126.921C57.1853 126.882 45.9841 124.64 38.0842 122.084C37.1017 121.769 36.1977 121.415 35.3724 121.1C34.6256 120.746 33.2893 120.707 32.3461 121.179C21.3413 125.859 8.92171 126.803 1.92585 126.961C1.1005 126.961 0.11793 126.253 0.0786276 125.505C0.0786276 124.719 2.24393e-05 118.976 0.039325 118.308C0.0786276 117.128 1.06119 116.538 1.49352 116.538C1.92585 116.538 12.2624 116.027 19.9264 114.296C20.7125 114.178 21.1841 112.959 20.3588 112.329C17.3325 110.127 14.6992 107.767 12.341 104.149C10.4152 101.238 9.03962 96.9117 9.03962 92.8213C9.03962 92.782 9.03962 92.7426 9.03962 92.7033C9.00032 85.781 12.6162 79.9994 17.2539 76.4202C21.9702 72.7625 27.8263 70.8746 33.761 70.7959C33.8789 70.7959 33.9968 70.7959 34.0361 70.7959C39.9315 70.8746 45.6303 73.1951 50.268 76.8529C54.8272 80.5107 58.5609 85.8597 58.6788 92.546C58.6788 92.546 58.6788 92.546 58.6788 92.5853C58.6788 92.6246 58.6788 92.6246 58.6788 92.664C58.6788 96.2824 58.0107 100.255 56.6744 103.087C55.3381 105.958 53.373 108.239 51.2113 110.127C50.1501 111.032 49.5213 111.543 48.3815 112.329C47.8706 112.683 47.1631 113.745 48.9318 114.257C54.6306 115.594 60.9584 116.499 64.5742 116.499C64.9279 116.499 65.2816 116.499 65.6747 116.499C71.4521 116.459 77.0724 115.791 85.5618 114.335C86.3871 114.099 86.9374 113.313 85.6797 112.251C82.7713 109.734 80.138 107.216 77.7799 103.441C76.0506 100.609 74.8322 96.5971 74.7929 92.8606C74.7929 92.7426 74.7929 92.664 74.7929 92.782C74.7536 85.9777 78.055 80.1567 82.6534 76.5776C87.2518 72.9591 93.1079 71.1499 99.1212 71.1105C99.1998 71.1105 99.2784 71.1105 99.3177 71.1105C99.357 71.1105 99.3963 71.1105 99.3963 71.1105C105.96 71.1499 111.973 73.5491 116.493 77.3642C121.013 81.14 124.275 86.489 124.393 92.7033C124.393 92.7033 124.393 92.7033 124.393 92.7426C124.393 92.782 124.393 92.782 124.393 92.8213C124.471 98.5636 122.035 104.581 117.986 108.672C116.218 110.481 113.742 112.054 113.27 112.29C112.563 112.683 112.327 114.178 113.113 114.375C114.253 114.729 121.327 116.459 131.585 116.499C132.686 116.499 132.961 117.639 132.961 118.308C132.961 118.701 133 125.269 133 125.545C133 126.174 132.332 127 131.664 127C119.873 126.961 113.27 126.017 108.121 124.522ZM86.0727 97.895C87.0553 99.5076 88.5488 101.199 90.3174 102.772C92.7935 104.975 95.1123 106.469 97.7063 107.964C98.7282 108.711 100.104 108.711 101.165 108.16C106.117 105.643 108.868 103.519 111.03 101.277C113.624 98.485 114.41 95.8105 114.488 92.8606C114.488 92.8606 114.488 92.8213 114.488 92.782C114.528 90.6581 113.152 87.8262 110.322 85.4664C107.532 83.1065 103.523 81.4939 99.2784 81.4939H99.1998C99.1605 81.4939 99.1605 81.4939 99.1605 81.4939C95.0337 81.4939 91.1428 82.8312 88.5881 84.8764C86.0334 86.961 84.6971 89.3602 84.6578 92.9C84.6578 94.2372 85.1295 96.2824 86.0727 97.895ZM20.4767 98.2883C21.5378 99.9402 23.1886 101.592 25.0751 103.087C27.3546 104.896 29.87 106.43 32.1889 107.728C32.9356 108.2 35.0186 108.239 35.8047 107.846C38.4773 106.43 40.5603 105.25 42.4468 103.991C45.2373 102.143 46.8487 100.452 47.7527 98.5243C48.3422 97.2264 48.7352 95.0238 48.7746 92.7426C48.7746 92.7033 48.7746 92.7033 48.7746 92.664C48.8139 90.5008 47.2811 87.5116 44.2548 85.1124C41.3071 82.7132 37.2196 81.14 33.9182 81.1793H33.8396H33.8003C29.9486 81.1793 25.9004 82.5559 23.1493 84.7584C20.3588 86.961 18.9439 89.5175 18.9046 92.782C18.9439 94.5125 19.4548 96.6757 20.4767 98.2883ZM9.00032 92.7033C9.00032 92.664 9.00032 92.664 9.00032 92.7033V92.7033Z" fill="black"/>
</g>
</svg>
