<svg width="518" height="75" viewBox="0 0 518 75" fill="none" xmlns="http://www.w3.org/2000/svg">
<rect width="518" height="75" fill="#C4C4C4"/>
<path d="M149.321 48.8721L155.864 28.584H160.479L151.006 55H147.563L137.993 28.584H142.607L149.321 48.8721ZM169.731 55H165.215V28.584H169.731V55ZM164.849 21.5771C164.849 20.8447 165.068 20.2262 165.508 19.7217C165.964 19.2171 166.631 18.9648 167.51 18.9648C168.389 18.9648 169.056 19.2171 169.512 19.7217C169.967 20.2262 170.195 20.8447 170.195 21.5771C170.195 22.3096 169.967 22.9199 169.512 23.4082C169.056 23.8965 168.389 24.1406 167.51 24.1406C166.631 24.1406 165.964 23.8965 165.508 23.4082C165.068 22.9199 164.849 22.3096 164.849 21.5771ZM187.944 55.4883C184.364 55.4883 181.45 54.3164 179.204 51.9727C176.958 49.6126 175.835 46.4632 175.835 42.5244V41.6943C175.835 39.0739 176.331 36.7383 177.324 34.6875C178.333 32.6204 179.733 31.0091 181.523 29.8535C183.33 28.6816 185.283 28.0957 187.383 28.0957C190.817 28.0957 193.486 29.2269 195.391 31.4893C197.295 33.7516 198.247 36.9906 198.247 41.2061V43.0859H180.352C180.417 45.6901 181.174 47.7979 182.622 49.4092C184.087 51.0042 185.942 51.8018 188.188 51.8018C189.784 51.8018 191.134 51.4762 192.241 50.8252C193.348 50.1742 194.316 49.3115 195.146 48.2373L197.905 50.3857C195.692 53.7874 192.371 55.4883 187.944 55.4883ZM187.383 31.8066C185.56 31.8066 184.03 32.474 182.793 33.8086C181.556 35.127 180.791 36.9824 180.498 39.375H193.73V39.0332C193.6 36.7383 192.982 34.9642 191.875 33.7109C190.768 32.4414 189.271 31.8066 187.383 31.8066ZM226.885 48.7744L231.963 28.584H236.479L228.789 55H225.127L218.706 34.9805L212.456 55H208.794L201.128 28.584H205.62L210.82 48.3594L216.973 28.584H220.61L226.885 48.7744ZM270.146 28.584L270.269 31.5137C272.205 29.235 274.818 28.0957 278.105 28.0957C281.8 28.0957 284.315 29.5117 285.649 32.3438C286.528 31.0742 287.668 30.0488 289.067 29.2676C290.483 28.4863 292.152 28.0957 294.072 28.0957C299.867 28.0957 302.812 31.1637 302.91 37.2998V55H298.394V37.5684C298.394 35.6803 297.962 34.2725 297.1 33.3447C296.237 32.4007 294.788 31.9287 292.754 31.9287C291.077 31.9287 289.686 32.4333 288.579 33.4424C287.472 34.4352 286.829 35.778 286.65 37.4707V55H282.109V37.6904C282.109 33.8493 280.229 31.9287 276.47 31.9287C273.507 31.9287 271.481 33.1901 270.391 35.7129V55H265.874V28.584H270.146ZM308.55 41.5479C308.55 38.96 309.054 36.6325 310.063 34.5654C311.089 32.4984 312.505 30.9033 314.312 29.7803C316.134 28.6572 318.21 28.0957 320.537 28.0957C324.134 28.0957 327.039 29.3408 329.253 31.8311C331.483 34.3213 332.598 37.6335 332.598 41.7676V42.085C332.598 44.6566 332.101 46.9678 331.108 49.0186C330.132 51.0531 328.724 52.64 326.885 53.7793C325.062 54.9186 322.962 55.4883 320.586 55.4883C317.005 55.4883 314.1 54.2432 311.87 51.7529C309.657 49.2627 308.55 45.9668 308.55 41.8652V41.5479ZM313.091 42.085C313.091 45.0146 313.766 47.3665 315.117 49.1406C316.484 50.9147 318.307 51.8018 320.586 51.8018C322.881 51.8018 324.704 50.9066 326.055 49.1162C327.406 47.3096 328.081 44.7868 328.081 41.5479C328.081 38.6507 327.389 36.307 326.006 34.5166C324.639 32.71 322.816 31.8066 320.537 31.8066C318.307 31.8066 316.509 32.6937 315.142 34.4678C313.774 36.2419 313.091 38.7809 313.091 42.085ZM351.03 32.6367C350.347 32.5228 349.606 32.4658 348.809 32.4658C345.846 32.4658 343.836 33.7272 342.778 36.25V55H338.262V28.584H342.656L342.729 31.6357C344.211 29.2757 346.31 28.0957 349.028 28.0957C349.907 28.0957 350.575 28.2096 351.03 28.4375V32.6367ZM365.679 55.4883C362.098 55.4883 359.185 54.3164 356.938 51.9727C354.692 49.6126 353.569 46.4632 353.569 42.5244V41.6943C353.569 39.0739 354.066 36.7383 355.059 34.6875C356.068 32.6204 357.467 31.0091 359.258 29.8535C361.064 28.6816 363.018 28.0957 365.117 28.0957C368.551 28.0957 371.221 29.2269 373.125 31.4893C375.029 33.7516 375.981 36.9906 375.981 41.2061V43.0859H358.086C358.151 45.6901 358.908 47.7979 360.356 49.4092C361.821 51.0042 363.677 51.8018 365.923 51.8018C367.518 51.8018 368.869 51.4762 369.976 50.8252C371.082 50.1742 372.051 49.3115 372.881 48.2373L375.64 50.3857C373.426 53.7874 370.106 55.4883 365.679 55.4883ZM365.117 31.8066C363.294 31.8066 361.764 32.474 360.527 33.8086C359.29 35.127 358.525 36.9824 358.232 39.375H371.465V39.0332C371.335 36.7383 370.716 34.9642 369.609 33.7109C368.503 32.4414 367.005 31.8066 365.117 31.8066Z" fill="white"/>
</svg>
